<svg width="12" height="16" xmlns="http://www.w3.org/2000/svg" xmlns:svg="http://www.w3.org/2000/svg">
 <g>
  <title>Layer 1</title>
  <g id="svg_1" stroke="null">
   <path d="m6.08334,5.54167c-1.3647,0 -2.475,1.11027 -2.475,2.475s1.1103,2.475 2.475,2.475s2.475,-1.11027 2.475,-2.475s-1.1103,-2.475 -2.475,-2.475z" fill="#4c4c4c" id="XMLID_169_" stroke="null"/>
   <path d="m6.08334,3.06667c-2.72943,0 -4.95,2.22057 -4.95,4.95s2.22057,4.95 4.95,4.95s4.95,-2.22057 4.95,-4.95s-2.22057,-4.95 -4.95,-4.95zm0,9c-2.23317,0 -4.05,-1.81683 -4.05,-4.05s1.81683,-4.05 4.05,-4.05s4.05,1.81683 4.05,4.05s-1.81683,4.05 -4.05,4.05z" fill="#4c4c4c" id="XMLID_197_" stroke="null"/>
  </g>
 </g>
</svg>