<?xml version="1.0" encoding="UTF-8" standalone="no"?>
<svg width="28" height="28" xmlns="http://www.w3.org/2000/svg" xmlns:svg="http://www.w3.org/2000/svg" preserveAspectRatio="xMidYMid">
 <g>
  <g stroke="null" id="svg_1">
   <path stroke="null" id="svg_2" fill="#929292" d="m19.293764,6.380012l0.83612,-2.875542c0.855458,-0.072753 1.526304,-0.757938 1.526304,-1.593593c0,-0.884054 -0.750801,-1.600729 -1.676952,-1.600729c-0.926313,0 -1.677114,0.716675 -1.677114,1.600729c0,0.582492 0.326972,1.09068 0.814181,1.370835l-0.820681,2.822489c-2.346335,-0.569152 -4.32702,-0.525717 -4.32702,-0.525717l-0.36695,0.156521l0,21.852691l0.36695,0.116809c2.212426,0 11.892073,-6.380734 11.9158,-13.227462c0,-4.905655 -3.41647,-7.108578 -6.590637,-8.097031zm-2.330084,14.075682c-1.887891,-2.878644 -1.089799,-9.57909 3.842249,-10.536828c1.352255,-0.206781 3.007918,0.641284 3.495776,2.525271c1.231997,3.996936 -6.01551,9.593671 -7.338025,8.011557zm2.960432,-6.166507c-0.843595,0 -1.527442,0.652764 -1.527442,1.458015c0,0.805251 0.683847,1.458015 1.527442,1.458015c0.843595,0 1.527442,-0.652764 1.527442,-1.458015c0,-0.805251 -0.683847,-1.458015 -1.527442,-1.458015zm0.456656,1.345239c-0.213052,0 -0.385801,-0.164897 -0.385801,-0.368265c0,-0.203368 0.172749,-0.368265 0.385801,-0.368265c0.213052,0 0.385801,0.164897 0.385801,0.368265c0,0.203368 -0.172749,0.368265 -0.385801,0.368265z"/>
   <path stroke="null" id="svg_3" fill="#A3A3A3" d="m9.624777,6.170128l-0.816293,-2.932007c0.467057,-0.284188 0.777778,-0.781827 0.777778,-1.349738c0,-0.884054 -0.750801,-1.600884 -1.677114,-1.600884c-0.926151,0 -1.676952,0.71683 -1.676952,1.600884c0,0.881417 0.746251,1.596075 1.668501,1.600419l0.818568,2.940229c-3.18668,1.00986 -6.644266,3.217591 -6.644266,8.048011c0.070855,6.981996 9.68111,13.226841 11.893536,13.226841l0,-22.125865c0,0 -1.991086,-0.009618 -4.343759,0.59211zm1.689303,14.285565c-1.322515,1.582114 -8.570022,-4.014621 -7.338025,-8.011557c0.487858,-1.883986 2.143521,-2.732052 3.495776,-2.525271c4.932049,0.957738 5.730141,7.658184 3.842249,10.536828zm-3.058475,-6.121412c-0.843595,0 -1.527442,0.652764 -1.527442,1.458015c0,0.805251 0.683847,1.458015 1.527442,1.458015c0.843595,0 1.527442,-0.652764 1.527442,-1.458015c0,-0.805251 -0.683847,-1.458015 -1.527442,-1.458015zm-0.456656,1.345239c-0.213052,0 -0.385801,-0.164897 -0.385801,-0.368265c0,-0.203368 0.172749,-0.368265 0.385801,-0.368265c0.213052,0 0.385801,0.164897 0.385801,0.368265c0,0.203368 -0.172749,0.368265 -0.385801,0.368265z"/>
  </g>
 </g>
</svg>